PathFileType	4	(X/Y/Z)	C:/Users/beibeiliu/ov580/test_trc/User3\sequence.20_training_dense_right.trc
DataRate	CameraRate	NumFrames	NumMarkers	Units	OrigDataRate	OrigDataStartFrame	OrigNumFrames
120	120	22	19	mm	120	1	346
Frame#	Time	ThumbCMC			ThumbMCP			ThumbIP			ThumbTip			IndexMCP			IndexPIP			IndexTip			MiddleMCP			MiddlePIP			MiddleTip			RingMCP			RingPIP			RingTip			PinkyMCP			PinkyPIP			PinkyTip			BackHand1			BackHand2			BackHand3	
		X0	Y0	Z0	X1	Y1	Z1	X2	Y2	Z2	X3	Y3	Z3	X4	Y4	Z4	X5	Y5	Z5	X6	Y6	Z6	X7	Y7	Z7	X8	Y8	Z8	X9	Y9	Z9	X10	Y10	Z10	X11	Y11	Z11	X12	Y12	Z12	X13	Y13	Z13	X14	Y14	Z14	X15	Y15	Z15	X16	Y16	Z16	X17	Y17	Z17	X18	Y18	Z18	
0	0	106.848	-40.4641	-1.82687	85.4222	-58.3566	-24.156	78.6955	-74.5564	-50.045	79.9888	-88.221	-69.1659	114.526	-36.2092	-80.3205	108.678	-49.4624	-108.88	101.7	-63.3988	-126.829	141.42	-35.8584	-87.2425	135.778	-47.4588	-115.04	135.589	-71.871	-139.645	156.72	-42.1104	-80.4388	156.912	-52.2909	-106.59	158.452	-71.7929	-128.919	175.581	-49.4998	-65.2078	181.713	-59.6926	-87.1701	185.291	-75.5805	-104.047	160.245	-22.9353	-31.7562	162.757	-14.4364	-1.70467	129.25	-15.4507	-15.2231	
1	0.00833333	103.889	-41.7171	-7.01382	88.917	-58.4051	-23.3506	80.1609	-74.967	-51.7604	76.4511	-90.1318	-67.7319	113.834	-37.703	-80.5103	105.807	-48.6607	-109.2	104.706	-66.7305	-129.509	136.973	-36.3818	-86.5414	134.142	-50.3877	-118.576	134.047	-73.5205	-141.54	153.635	-42.6396	-82.782	160.81	-52.4455	-104.021	156.519	-72.0222	-128.579	174.129	-50.6412	-64.5686	180.799	-61.2535	-88.3571	178.933	-78.5408	-105.963	159.19	-24.1285	-31.867	162.151	-16.2251	-2.31583	127.796	-15.4924	-18.8719	
2	0.0166667	102.806	-41.1493	-1.58522	89.1948	-58.9409	-25.5568	78.4073	-75.188	-50.8378	79.4822	-88.7291	-68.6909	114.096	-38.1801	-80.903	105.166	-47.3853	-105.574	105.389	-64.2202	-127.236	136.677	-37.7127	-91.5165	133.435	-50.3721	-118.035	133.853	-74.8263	-142.167	156.517	-42.7645	-81.3942	156.648	-51.8132	-103.906	157.246	-71.9401	-127.04	174.035	-49.5917	-66.1441	180.544	-61.0821	-85.7144	180.034	-76.2534	-103.332	159.947	-24.2075	-32.9973	165.043	-16.1467	-5.24217	129.829	-15.1721	-17.4647	
3	0.025	101.576	-41.571	-4.30099	86.2897	-58.7835	-22.9595	79.0794	-74.9865	-52.0471	77.8273	-90.2352	-69.7246	111.698	-37.6927	-79.0103	105.019	-50.2971	-108.778	106.332	-65.5966	-128.24	140.338	-37.6098	-89.3056	136.99	-51.573	-118.468	135.906	-74.0077	-140.197	154.645	-41.821	-83.0072	157.587	-53.3459	-107.655	155.72	-72.4238	-127.235	173.794	-49.3994	-64.7869	179.408	-59.4661	-84.0826	180.335	-79.3765	-105.815	156.951	-22.0452	-33.1345	163.281	-17.4745	-2.03146	125.591	-16.4863	-20.4453	
4	0.0333333	100.473	-41.1764	-5.72635	87.52	-58.6268	-24.0753	78.3773	-74.5521	-50.7875	79.069	-89.9923	-70.3809	113.284	-38.382	-82.8263	104.895	-48.0955	-106.599	106.573	-65.7276	-127.337	135.788	-36.4296	-86.1116	134.905	-51.9255	-118.142	133.005	-72.1677	-139.715	154.359	-42.6229	-77.9815	154.677	-54.0004	-107.89	155.964	-72.9438	-129.025	175.415	-50.292	-62.2973	179.299	-61.5487	-88.5413	179.868	-80.8971	-104.955	157.674	-22.6607	-29.9079	166.123	-15.8732	-2.61721	131.044	-16.5393	-16.9106	
5	0.0416667	101.472	-42.2204	-6.6897	89.8434	-58.9356	-24.5809	80.331	-74.4201	-46.4195	79.1387	-89.0066	-66.9311	110.598	-38.8971	-81.0397	109.24	-50.286	-108.35	100.543	-67.2055	-129.681	138.642	-36.9292	-86.243	137.881	-49.4781	-115.598	132.876	-71.2935	-138.36	153.436	-42.816	-81.4387	158.273	-52.4744	-105.323	154.434	-70.7842	-125.381	176.89	-51.0059	-65.8881	178.222	-59.9497	-85.339	181.721	-81.4168	-106.822	162.038	-24.6241	-32.5871	163.449	-17.6926	-5.04551	130.79	-17.5113	-20.7338	
6	0.05	103.786	-42.6739	-5.76158	85.8205	-58.6742	-23.5049	75.8871	-75.3605	-49.6345	75.338	-90.646	-66.9621	111.925	-38.9478	-81.2991	104.02	-49.9877	-108.572	106.018	-66.6807	-128.658	135.832	-36.3622	-87.5267	135.382	-49.5122	-115.565	133.456	-72.9059	-139.563	157.446	-42.4548	-81.5321	159.066	-52.8047	-105.386	157.745	-71.0138	-125.741	174.157	-50.4284	-63.1296	181.497	-62.7341	-86.8336	181.224	-81.806	-106.473	158.532	-22.4522	-29.8986	161.058	-17.1579	-2.66606	128.37	-17.7697	-19.8277	
7	0.0583333	102.616	-42.184	-1.38469	86.258	-58.8414	-23.7411	77.2063	-75.1695	-48.3888	76.1843	-90.2965	-68.8576	109.954	-38.0966	-81.687	107.209	-51.7337	-109.7	103.611	-68.4734	-130.576	137.762	-37.8251	-89.0713	135.372	-50.8679	-116.604	136.082	-76.2462	-142.124	157.945	-43.4602	-82.0278	159.91	-53.7878	-106.316	154.94	-70.2931	-125.909	174.588	-49.7786	-61.8826	178.984	-59.5184	-84.0927	182.939	-78.4247	-105.576	157.723	-21.8355	-34.3361	161.823	-15.7958	-1.0278	126.157	-16.1713	-16.9096	
8	0.0666667	105.347	-43.0057	-6.4732	86.521	-59.3519	-23.236	79.1901	-74.6571	-46.4258	76.568	-90.6531	-66.3233	112.271	-39.2239	-82.6433	106.005	-49.8458	-108.717	105.119	-65.4722	-127.077	138.691	-37.3817	-87.8357	136.305	-52.5837	-118.202	133.291	-72.0414	-137.764	155.1	-41.8988	-78.0229	156.876	-52.2755	-103.692	156.348	-72.9512	-127.955	176.121	-50.1528	-63.7502	177.756	-61.2903	-86.194	184.227	-78.5544	-102.333	162.487	-22.4105	-32.7639	165.34	-17.5096	-4.01933	130.173	-17.5134	-16.0531	
9	0.075	103.221	-41.5191	-1.8705	86.8251	-60.2048	-23.9414	78.0703	-74.9072	-46.7778	76.892	-90.3759	-68.5705	114.571	-38.412	-82.7049	104.709	-48.2988	-105.427	103.948	-67.8786	-128.505	135.586	-36.9921	-90.5767	135.805	-52.2602	-118.115	132.134	-72.065	-138.939	156.388	-42.194	-78.3529	156.113	-52.3638	-103.783	155.178	-72.0775	-126.345	178.462	-50.828	-64.0868	179.394	-61.3179	-86.0258	179.774	-77.2324	-104.768	157.698	-24.3384	-29.8538	165.365	-18.7144	-5.06287	132.468	-15.7858	-15.8264	
10	0.0833333	106.051	-42.0095	-5.44671	85.6009	-60.1736	-26.4204	76.2244	-77.0715	-48.6274	78.5953	-91.5911	-69.4859	112.594	-37.4715	-79.169	104.685	-50.3892	-109.124	107.07	-65.6652	-127.505	138.232	-38.3539	-89.6403	138.633	-50.2614	-115.396	134.452	-73.8814	-138.533	157.818	-43.4303	-82.209	157.715	-53.2387	-104.903	155.964	-72.9212	-126.19	178.907	-52.192	-64.332	179.062	-61.9144	-86.0324	179.687	-80.7608	-106.968	158.373	-24.0132	-28.5883	164.598	-16.6587	-1.67062	131.527	-18.3009	-15.3639	
11	0.0916667	105.013	-42.7743	-1.18932	91.2251	-59.5348	-24.5696	78.4699	-77.0199	-52.0019	77.2542	-92.2157	-71.5542	110.965	-38.724	-81.708	107.35	-50.2089	-108.962	104.874	-68.2991	-129.201	135.694	-37.6977	-86.7519	136.904	-51.4348	-117.066	131.237	-74.2612	-139.614	156.993	-43.2776	-81.7828	158.53	-54.399	-104.75	154.351	-75.5382	-127.182	173.99	-51.4278	-68.0167	179.934	-63.6922	-89.0917	181.508	-81.8163	-105.23	160.442	-24.848	-34.2031	164.03	-18.0902	-3.51182	127.459	-18.671	-19.5663	
12	0.1	102.702	-42.8755	-2.32	90.0825	-60.0424	-25.0451	79.4247	-76.0223	-47.047	77.1493	-90.1387	-67.6802	110.279	-38.5378	-84.1605	107.712	-50.7966	-108.644	102.04	-65.624	-126.102	135.376	-38.4626	-91.8474	138.487	-54.4407	-118.365	134.261	-76.0855	-138.917	155.585	-44.0603	-83.047	159.494	-56.8292	-107.666	153.105	-74.857	-127.655	176.745	-51.3069	-67.6357	178.225	-62.7282	-87.9696	178.415	-81.1065	-105.441	158.86	-22.792	-33.2432	163.744	-19.3186	-4.32765	128.305	-16.3366	-16.4175	
13	0.108333	106.966	-43.5328	-5.40802	89.3673	-61.029	-25.5164	80.9055	-75.189	-48.9907	77.0492	-90.2366	-66.2589	114.369	-39.7541	-81.1328	109.091	-50.8708	-108.394	103.548	-69.0728	-130.611	140.76	-38.4748	-87.4114	138.586	-51.773	-115.373	135.412	-77.745	-140.908	158.665	-45.0154	-83.9511	154.271	-55.1941	-105.432	156.191	-73.3152	-124.932	178.46	-51.8244	-64.1106	180.069	-64.8459	-88.6191	178.327	-78.7433	-103.665	158.959	-23.7956	-29.9606	164.248	-19.1632	-5.47675	127.957	-16.5304	-16.3133	
14	0.116667	104.92	-43.7772	-5.32941	86.0695	-61.1598	-23.4323	79.5249	-75.679	-48.6996	77.5417	-91.1557	-71.9059	111.632	-39.3527	-84.8764	108.929	-52.8135	-110.108	102.734	-67.8233	-128.341	135.939	-38.9805	-89.1608	138.674	-51.3559	-114.775	133.895	-76.4706	-140.272	159.296	-44.7218	-82.3176	157.38	-56.6088	-108.753	154.481	-76.3455	-128.408	176.645	-52.1449	-64.4085	183.216	-62.5441	-85.9185	180.147	-81.2357	-106.646	162.148	-24.6607	-31.6256	162.419	-17.8465	-3.61029	128.583	-19.1499	-19.845	
15	0.125	102.937	-42.9868	-5.99558	88.2654	-60.9423	-24.8498	78.1032	-75.9839	-48.4511	78.133	-90.3326	-68.2923	111.114	-39.088	-84.0197	105.895	-52.8414	-110.164	101.572	-68.0594	-128.908	137.229	-39.5292	-91.3576	134.101	-53.255	-118.402	131.808	-74.5691	-139.887	154.36	-43.9115	-83.2289	160.601	-53.9931	-105.281	157.27	-74.8746	-127.955	177.222	-51.8882	-65.3345	181.911	-63.0687	-86.1648	180.411	-79.8391	-105.784	163.508	-23.402	-30.9103	166.27	-17.8625	-6.02283	129.262	-18.6995	-16.5276	
16	0.133333	106.706	-43.9982	-5.1189	86.9771	-61.4885	-25.9099	81.29	-76.4639	-52.3254	79.0262	-91.7963	-70.7717	111.412	-39.5689	-84.7717	104.698	-51.7355	-108.972	105.379	-69.8443	-130.627	136.707	-37.791	-88.2012	135.012	-51.6081	-115.955	137.194	-74.8256	-138.503	155.274	-43.5394	-78.6267	157.314	-55.6257	-107.508	155.15	-74.6592	-129.076	177.795	-51.5838	-62.91	179.297	-64.4784	-88.461	179.207	-80.9547	-106.819	161.527	-23.1078	-30.2085	166.162	-17.4167	-2.34246	130.442	-19.1658	-15.5422	
17	0.141667	103.638	-43.4452	-6.53872	90.5634	-62.2895	-28.7042	78.7003	-77.7673	-48.9879	78.4741	-91.4614	-68.077	114.098	-39.6359	-85.2409	108.287	-51.7519	-109.626	105.52	-68.569	-128.189	139.686	-39.0808	-91	137.695	-53.2866	-118.69	133.159	-75.4372	-140.633	154.216	-43.1369	-82.1619	159.222	-56.599	-109.066	154.107	-72.7867	-127.274	175.453	-51.1708	-67.2864	180.012	-64.0614	-89.1112	184.161	-79.2696	-106.033	162.786	-22.9432	-30.8165	165.791	-17.0979	-0.652097	127.42	-18.6325	-15.8043	
18	0.15	101.735	-43.1312	-2.14361	88.9643	-62.1411	-28.0917	78.2358	-78.6909	-48.2151	78.2625	-93.261	-70.098	110.631	-39.031	-82.2095	107.504	-50.1846	-107.154	107.01	-69.6052	-130.452	136.213	-37.9871	-91.9319	138.271	-50.7791	-114.973	137.517	-76.3756	-140.434	159.121	-42.8065	-79.0536	157.744	-52.4545	-105.291	154.702	-73.4334	-127.72	176.081	-50.477	-63.6594	179.188	-63.0107	-89.5938	182.894	-78.2806	-103.627	158.155	-22.9061	-32.3815	162.064	-19.3997	-2.60108	129.995	-17.8863	-16.8748	
19	0.158333	102.575	-43.3235	-5.25212	91.7956	-61.6161	-28.8461	83.3271	-77.8636	-48.3147	82.8726	-93.8275	-70.2268	111.729	-39.2577	-79.8281	106.235	-50.65	-107.739	102.107	-67.915	-126.951	140.748	-38.6292	-91.4827	137.421	-52.4746	-117.119	134.368	-77.1269	-141.02	157.446	-43.1572	-83.7922	154.887	-53.5839	-107.514	154.043	-75.9847	-129.021	174.592	-50.6823	-63.4742	180.301	-61.4149	-87.1304	178.289	-78.3848	-108.253	157.979	-22.5755	-34.598	164.39	-17.735	-5.95536	131.034	-17.402	-15.1323	
20	0.166667	106.656	-43.8689	-6.73387	91.7002	-61.5658	-24.6861	80.7002	-80.3083	-49.508	90.0948	-92.8549	-69.8557	116.21	-38.894	-81.9731	105.566	-50.3505	-107.534	102.972	-69.7668	-126.258	136.908	-36.4426	-87.4891	136.806	-49.7243	-115.26	130.242	-78.7019	-140.396	156.12	-42.3837	-83.0342	154.756	-54.8643	-108.337	157.34	-74.4074	-125.818	179.333	-50.6759	-65.8819	182.291	-61.5853	-85.7682	182.443	-79.3226	-105.849	164.582	-21.8159	-29.7515	167.538	-16.3453	-2.85574	127.164	-18.0462	-19.6219	
21	0.175	104.785	-43.2673	-6.41439	93.7921	-63.0977	-28.485	82.7393	-81.0873	-51.3973	90.168	-95.1938	-68.4856	114.283	-38.6272	-84.576	106.319	-48.5152	-106.198	103.471	-73.5876	-127.693	138.133	-36.8237	-89.7249	132.358	-52.2775	-117.727	130.985	-79.4419	-137.838	158.489	-42.5645	-83.8248	156.689	-53.5577	-104.783	156.024	-75.153	-125.394	177.618	-50.691	-68.4937	177.694	-62.308	-87.7754	177.415	-78.9321	-106.267	159.536	-21.2095	-28.8355	166.118	-17.9759	-2.13355	132.368	-16.7461	-15.8756	
